<svg width="200" height="200" viewBox="0 0 200 200" fill="none" xmlns="http://www.w3.org/2000/svg">
<path d="M200 5C174.804 5 150.641 15.0089 132.825 32.8249C115.009 50.6408 105 74.8044 105 100C105 125.196 115.009 149.359 132.825 167.175C150.641 184.991 174.804 195 200 195L200 5Z" fill="#D64F31"/>
<path fill-rule="evenodd" clip-rule="evenodd" d="M200 5C200 2.23858 197.761 0 195 0H5C2.23858 0 0 2.23857 0 5V195C0 197.761 2.23857 200 5 200H195C197.761 200 200 197.761 200 195L200 5ZM100.5 137C121.211 137 138 120.211 138 99.5C138 78.7893 121.211 62 100.5 62C79.7893 62 63 78.7893 63 99.5C63 120.211 79.7893 137 100.5 137Z" fill="#39ACD8"/>
</svg>
